# xmcd CD database file
#
# Track frame offsets:
#	150
#	21562
#	36705
#	63180
#	75265
#	90023
#	104490
#	137017
#	155714
#	183660
#	196198
#	209399
#
# Disc length: 2986 seconds
#
# Revision: 1
# Processed by: cddbd v1.5.2PL0 Copyright (c) Steve Scherf et al.
# Submitted via: CDex 1.70beta2
#
DISCID=a00ba80c
DTITLE=Various Artist - Beginner Jazz Sax／Trumpet (Sax)
DYEAR=2013
DGENRE=Jazz
TTITLE0=Giant Steps
TTITLE1=Jump For Joy
TTITLE2=Cutie
TTITLE3=Stan’s Mood
TTITLE4=Now’s The Time
TTITLE5=Lester Leaps In
TTITLE6=Locomotion
TTITLE7=Long Ago And Far Away
TTITLE8=Stars Fell On Alabama
TTITLE9=Limelight
TTITLE10=Yardbird Suite
TTITLE11=Honeysuckle Rose
EXTD=YEAR: 2013
EXTT0=
EXTT1=
EXTT2=
EXTT3=
EXTT4=
EXTT5=
EXTT6=
EXTT7=
EXTT8=
EXTT9=
EXTT10=
EXTT11=
PLAYORDER=
